<?xml version="1.0" encoding="utf-8"?>
<svg width="24" height="24" viewBox="0 0 24 24" fill="#333" xmlns="http://www.w3.org/2000/svg">
  <path d="M 24 21 L 23.257 19 L 21.328 19 L 17.854 7 L 4.615 7 L 0 18 L 16.812 18 L 16.248 16 L 3.008 16 L 5.945 9 L 16.373 9 L 19.805 21 L 24 21 Z M 8.5 6 C 7.672 6 7 5.328 7 4.5 C 7 3.671 7.672 3 8.5 3 C 9.328 3 10 3.671 10 4.5 C 10 5.328 9.328 6 8.5 6 Z M 15.4 13 L 13.5 6 C 12.672 6 12 5.329 12 4.5 C 12 3.671 12.672 3 13.5 3 C 14.328 3 15 3.671 15 4.5 C 15 5.328 14.328 6 13.5 6 Z" transform="matrix(-1, 0, 0, -1, 24, 24)"/>
</svg>